<svg xmlns="http://www.w3.org/2000/svg" xmlns:xlink="http://www.w3.org/1999/xlink" width="335" height="390"><defs><linearGradient id="a"><stop offset="0" stop-color="#908686"/><stop offset="1" stop-color="#363636"/></linearGradient><linearGradient xlink:href="#a" id="b" x1="372.932" y1="291.212" x2="377.612" y2="682.646" gradientUnits="userSpaceOnUse"/></defs><g><path d="M0 219.18c0 94.343 74.991 170.82 167.5 170.82s167.5-76.477 167.5-170.82c0-16.512-2.299-32.477-6.585-47.58h6.585v-171.6l-120.425 55.2c-14.933-4.451-30.732-6.84-47.075-6.84-92.509 0-167.5 76.478-167.5 170.82z" fill="#eb592f"/><path d="M54.304 220.714c0-63.757 50.679-115.44 113.196-115.44 62.518 0 113.197 51.683 113.197 115.44s-50.679 115.44-113.197 115.44c-62.517 0-113.196-51.683-113.196-115.44z" fill="#fff"/><path d="M74.189 220.839c0-51.694 41.776-93.6 93.311-93.6 51.535 0 93.311 41.906 93.311 93.6 0 51.695-41.776 93.6-93.311 93.6-51.534 0-93.311-41.905-93.311-93.6z" fill="#4c4c4c"/><path d="M134.221 193.791l66.558-30.633-.781 87.36h-65.777v-56.727z" fill="#fff"/><path d="M0 219.18c0 94.343 74.991 170.82 167.5 170.82s167.5-76.477 167.5-170.82c0-16.512-2.299-32.477-6.585-47.58h6.585v-171.6l-120.425 55.2c-14.933-4.451-30.732-6.84-47.075-6.84-92.509 0-167.5 76.478-167.5 170.82z" opacity=".384" fill="url(#b)"/></g></svg>